<svg xmlns="http://www.w3.org/2000/svg" width="90.995" height="90.995" viewBox="0 0 90.995 90.995">
  <g id="Group_8" data-name="Group 8" transform="translate(489.999 128.736)">
    <g id="Group_7" data-name="Group 7" transform="translate(-489.999 -128.736)">
      <path id="Path_1" data-name="Path 1" d="M-490-128.736v90.995H-399v-90.995ZM-410.066-48.8h-68.874v-68.873h68.874Z" transform="translate(489.999 128.736)" fill="#aa9828"/>
      <rect id="Rectangle_1" data-name="Rectangle 1" width="69.525" height="69.527" transform="translate(10.734 10.732)" fill="#0f0b0c"/>
      <g id="Group_6" data-name="Group 6" transform="translate(22.453 27.265)">
        <g id="Group_5" data-name="Group 5" transform="translate(0 0)">
          <g id="Group_2" data-name="Group 2" transform="translate(16.844)">
            <g id="Group_1" data-name="Group 1">
              <path id="Path_2" data-name="Path 2" d="M-334.4-21.782h-1.817v-3.611a1.645,1.645,0,0,1,1.76-1.847,1.822,1.822,0,0,1,1.946,1.983,1.975,1.975,0,0,1-2,2.087h-1.028v.912h1.143a3.02,3.02,0,0,0,2.993-3,2.777,2.777,0,0,0-3.055-2.948,2.644,2.644,0,0,0-2.824,2.875v2.16h-.642v-2.16a2.643,2.643,0,0,0-2.824-2.875,2.778,2.778,0,0,0-3.056,2.948,3.025,3.025,0,0,0,3,3h1.139v0h.674v3.607a1.649,1.649,0,0,1-1.765,1.853,1.822,1.822,0,0,1-1.938-1.99,1.973,1.973,0,0,1,2-2.084h1.027v-.91h-1.139a3.022,3.022,0,0,0-3,2.993,2.781,2.781,0,0,0,3.056,2.951,2.643,2.643,0,0,0,2.824-2.875v-2.16h.642v2.16a2.644,2.644,0,0,0,2.824,2.875,2.779,2.779,0,0,0,3.055-2.951A3.017,3.017,0,0,0-334.4-21.782Zm-6.3-1.387a1.974,1.974,0,0,1-2-2.087,1.819,1.819,0,0,1,1.938-1.983,1.645,1.645,0,0,1,1.765,1.847v2.223Zm2.771,1.387v-.477h.642v.477Zm3.471,4.983a1.649,1.649,0,0,1-1.76-1.853v-2.22h1.7a1.974,1.974,0,0,1,2,2.084A1.825,1.825,0,0,1-334.454-16.8Z" transform="translate(343.805 28.204)" fill="#aa9828"/>
            </g>
          </g>
          <g id="Group_4" data-name="Group 4" transform="translate(0 15.886)">
            <g id="Group_3" data-name="Group 3" transform="translate(19.83 0.524)">
              <path id="Path_3" data-name="Path 3" d="M-329.4,46.736c-1.987,0-2.9-1.209-2.9-2.5V35.172h2.128V37.7h2.047v1.383h-2.047v5.06c0,.657.376,1.046,1.174,1.046h.873v1.546Z" transform="translate(332.304 -35.129)" fill="#fff"/>
              <path id="Path_4" data-name="Path 4" d="M-309.912,53.855c-2.378,0-4.715-1.239-4.715-4.612s2.337-4.595,4.715-4.595a4.74,4.74,0,0,1,3.489,1.26l-1.459,1.209a2.641,2.641,0,0,0-2.03-.853,2.553,2.553,0,0,0-1.96.8,2.956,2.956,0,0,0-.627,2.179,3.021,3.021,0,0,0,.627,2.2,2.575,2.575,0,0,0,1.96.794,2.653,2.653,0,0,0,2.03-.849l1.459,1.19A4.751,4.751,0,0,1-309.912,53.855Z" transform="translate(319.216 -42.146)" fill="#fff"/>
              <path id="Path_5" data-name="Path 5" d="M-272.313,46.736V41.217a1.888,1.888,0,0,0-2.13-1.969,1.914,1.914,0,0,0-2.151,1.969v5.519h-2.13V35.172h2.13v3.475a3.957,3.957,0,0,1,2.737-1.015c2.36,0,3.675,1.349,3.675,3.3v5.8Z" transform="translate(292.633 -35.129)" fill="#fff"/>
              <path id="Path_6" data-name="Path 6" d="M-239.358,36.925V35.008h2.127v1.917Zm0,9.69V37.579h2.127v9.036Z" transform="translate(263.486 -35.008)" fill="#fff"/>
            </g>
            <path id="Path_7" data-name="Path 7" d="M-400.874,34.362a4.878,4.878,0,0,0-3.685-1.372c-1.508,0-4.13.53-4.13,3.277V45.12h2.074V36.434c0-1.521,1.04-1.816,2.092-1.816a2.44,2.44,0,0,1,1.922.7c.279.305.551.664.551,1.966a3.174,3.174,0,0,1-.533,2.032,1.922,1.922,0,0,1-1.111.62,11.822,11.822,0,0,1-2.191.11v1.615a12.374,12.374,0,0,0,3.162-.257,4.175,4.175,0,0,0,1.916-1.168,4.131,4.131,0,0,0,.888-2.936A3.923,3.923,0,0,0-400.874,34.362Z" transform="translate(408.69 -32.99)" fill="#fff"/>
          </g>
        </g>
        <path id="Path_8" data-name="Path 8" d="M-363.621,53.493V47.575c0-2.893-2.9-3.276-4.227-3.276a5.255,5.255,0,0,0-3.294,1.083,4.319,4.319,0,0,0-1.255,3.558,4.337,4.337,0,0,0,1.255,3.579,4.6,4.6,0,0,0,3.153,1.07,5.421,5.421,0,0,0,1.509-.2V51.451a2.948,2.948,0,0,1-1.509.508,2.3,2.3,0,0,1-1.543-.532,3.138,3.138,0,0,1-.735-2.486,3.128,3.128,0,0,1,.735-2.485,2.539,2.539,0,0,1,1.807-.529c1.141,0,2.027.356,2.027,1.942v5.625Z" transform="translate(381.819 -25.477)" fill="#fff"/>
      </g>
    </g>
  </g>
</svg>
